<?xml version="1.0" encoding="UTF-8"?>
<svg xmlns="http://www.w3.org/2000/svg" xmlns:xlink="http://www.w3.org/1999/xlink" width="72px" height="72px" viewBox="0 0 72 72" version="1.1">
<g id="surface1">
<path style=" stroke:none;fill-rule:nonzero;fill:rgb(16.862745%,25.490196%,30.196078%);fill-opacity:1;" d="M 36 0 C 16.117188 0 0 16.117188 0 36 C 0 55.882812 16.117188 72 36 72 C 55.882812 72 72 55.882812 72 36 C 72 16.117188 55.878906 0 36 0 Z M 46.085938 63.425781 C 45.878906 60.609375 45.644531 57.117188 45.632812 55.707031 C 45.542969 54.621094 45.425781 51.863281 42.804688 50.101562 C 53.203125 49.230469 58.152344 43.484375 58.507812 35.890625 C 58.804688 31.566406 57.085938 27.761719 54.03125 24.695312 C 54.1875 21.410156 53.933594 17.519531 53.722656 15.8125 C 51.375 15.136719 45.910156 18.023438 44.382812 19.257812 C 41.160156 18.007812 33.273438 17.566406 28.480469 19.257812 C 25.082031 16.867188 21.214844 15.390625 19.105469 15.804688 C 17.160156 20.117188 18.410156 24.195312 18.792969 24.679688 C 16.285156 26.972656 12.789062 29.789062 13.738281 35.695312 C 15.261719 44.355469 21.355469 49.027344 31.164062 50.171875 C 29.070312 50.597656 28.71875 52.160156 28.542969 52.835938 C 21.957031 55.554688 20.070312 51.160156 19.238281 50.011719 C 16.472656 46.589844 13.992188 47.582031 13.839844 47.636719 C 13.691406 47.691406 13.578125 47.90625 13.59375 48.011719 C 13.734375 48.75 15.238281 49.496094 15.3125 49.558594 C 17.355469 51.078125 18.109375 53.828125 18.574219 54.609375 C 21.503906 59.421875 28.308594 57.425781 28.371094 57.46875 C 28.375 57.886719 28.324219 61.429688 28.285156 64.1875 C 15.878906 60.796875 6.75 49.480469 6.75 36 C 6.75 19.84375 19.84375 6.75 36 6.75 C 52.15625 6.75 65.25 19.84375 65.25 36 C 65.25 48.605469 57.261719 59.3125 46.085938 63.425781 Z M 46.085938 63.425781 "/>
</g>
</svg>
