<?xml version="1.0" encoding="iso-8859-1"?>
<!-- Generator: Adobe Illustrator 19.0.0, SVG Export Plug-In . SVG Version: 6.00 Build 0)  -->
<svg version="1.1" id="Layer_1" xmlns="http://www.w3.org/2000/svg" xmlns:xlink="http://www.w3.org/1999/xlink" x="0px" y="0px"
	 viewBox="0 0 512 512" style="enable-background:new 0 0 512 512;" xml:space="preserve">
<g transform="translate(1 1)">
	<g>
		<g>
			<path d="M255,212.333c-23.893,0-42.667,18.773-42.667,42.667c0,5.12,3.413,8.533,8.533,8.533S229.4,260.12,229.4,255
				c0-14.507,11.093-25.6,25.6-25.6c5.12,0,8.533-3.413,8.533-8.533S260.12,212.333,255,212.333z"/>
			<path d="M263.533,41.667c0-5.12-3.413-8.533-8.533-8.533c-14.507,0-25.6,11.093-25.6,25.6c0,5.12,3.413,8.533,8.533,8.533
				s8.533-3.413,8.533-8.533S249.88,50.2,255,50.2S263.533,46.787,263.533,41.667z"/>
			<path d="M451.267,391.533c-13.777,0-26.377,4.544-36.422,12.218L314.654,303.561c10.731-13.2,17.146-30.076,17.146-48.561
				c0-39.779-29.674-72.128-68.267-76.326v-60.81c29.155-4.075,51.2-28.753,51.2-59.131C314.733,25.453,288.28-1,255-1
				c-33.28,0-59.733,26.453-59.733,59.733c0,30.378,22.045,55.056,51.2,59.131v60.81C207.874,182.872,178.2,215.221,178.2,255
				c0,18.265,6.269,34.954,16.771,48.082l-85.844,85.844c-11.582-9.043-26.115-14.46-41.86-14.46C29.72,374.467-1,405.187-1,442.733
				S29.72,511,67.267,511s68.267-30.72,68.267-68.267c0-15.541-5.274-29.903-14.105-41.41l85.516-86.273
				c13.125,10.489,29.803,16.75,48.056,16.75c18.056,0,34.57-6.13,47.629-16.415l100.728,99.965
				c-7.44,9.96-11.823,22.373-11.823,35.917c0,33.28,26.453,59.733,59.733,59.733c33.28,0,59.733-26.453,59.733-59.733
				C511,417.987,484.547,391.533,451.267,391.533z M212.333,58.733c0-23.893,18.773-42.667,42.667-42.667
				c23.893,0,42.667,18.773,42.667,42.667S278.893,101.4,255,101.4C231.107,101.4,212.333,82.627,212.333,58.733z M67.267,493.933
				c-28.16,0-51.2-23.04-51.2-51.2c0-28.16,23.04-51.2,51.2-51.2c13.143,0,25.168,5.021,34.258,13.237
				c0.403,0.754,0.929,1.47,1.582,2.123c0.716,0.716,1.436,1.273,2.216,1.689c8.159,9.078,13.144,21.059,13.144,34.151
				C118.467,470.893,95.427,493.933,67.267,493.933z M195.267,255c0-33.28,26.453-59.733,59.733-59.733
				c33.28,0,59.733,26.453,59.733,59.733c0,16.314-6.367,30.977-16.768,41.698c-0.399,0.287-0.787,0.604-1.152,0.969
				c-0.321,0.321-0.603,0.662-0.863,1.011c-10.651,9.978-25.012,16.056-40.95,16.056C221.72,314.733,195.267,288.28,195.267,255z
				 M451.267,493.933c-23.893,0-42.667-18.773-42.667-42.667c0-11.061,4.029-21.019,10.72-28.531
				c0.495-0.349,0.914-0.767,1.181-1.267c7.712-7.969,18.568-12.869,30.765-12.869c23.893,0,42.667,18.773,42.667,42.667
				C493.933,475.16,475.16,493.933,451.267,493.933z"/>
			<path d="M451.267,425.667c-14.507,0-25.6,11.093-25.6,25.6c0,5.12,3.413,8.533,8.533,8.533s8.533-3.413,8.533-8.533
				c0-5.12,3.413-8.533,8.533-8.533c5.12,0,8.533-3.413,8.533-8.533S456.387,425.667,451.267,425.667z"/>
			<path d="M67.267,408.6c-18.773,0-34.133,15.36-34.133,34.133c0,5.12,3.413,8.533,8.533,8.533s8.533-3.413,8.533-8.533
				c0-9.387,7.68-17.067,17.067-17.067c5.12,0,8.533-3.413,8.533-8.533S72.387,408.6,67.267,408.6z"/>
		</g>
	</g>
</g>
<g>
</g>
<g>
</g>
<g>
</g>
<g>
</g>
<g>
</g>
<g>
</g>
<g>
</g>
<g>
</g>
<g>
</g>
<g>
</g>
<g>
</g>
<g>
</g>
<g>
</g>
<g>
</g>
<g>
</g>
</svg>
