<?xml version="1.0" encoding="iso-8859-1"?>
<!-- Generator: Adobe Illustrator 19.0.0, SVG Export Plug-In . SVG Version: 6.00 Build 0)  -->
<svg version="1.1" id="Layer_1" xmlns="http://www.w3.org/2000/svg" xmlns:xlink="http://www.w3.org/1999/xlink" x="0px" y="0px"
	 viewBox="0 0 512 512" style="enable-background:new 0 0 512 512;" xml:space="preserve">
<g transform="translate(1 1)">
	<g>
		<g>
			<path d="M255,195.267c-33.28,0-59.733,26.453-59.733,59.733c0,5.12,3.413,8.533,8.533,8.533c5.12,0,8.533-3.413,8.533-8.533
				c0-23.893,18.773-42.667,42.667-42.667c5.12,0,8.533-3.413,8.533-8.533C263.533,198.68,260.12,195.267,255,195.267z"/>
			<path d="M417.133,75.8c5.12,0,8.533-3.413,8.533-8.533c0-9.387,7.68-17.067,17.067-17.067c5.12,0,8.533-3.413,8.533-8.533
				s-3.413-8.533-8.533-8.533c-18.773,0-34.133,15.36-34.133,34.133C408.6,72.387,412.013,75.8,417.133,75.8z"/>
			<path d="M58.733,33.133c-14.507,0-25.6,11.093-25.6,25.6c0,5.12,3.413,8.533,8.533,8.533s8.533-3.413,8.533-8.533
				s3.413-8.533,8.533-8.533s8.533-3.413,8.533-8.533S63.853,33.133,58.733,33.133z"/>
			<path d="M434.2,357.4c-18.265,0-34.954,6.269-48.082,16.771l-58.964-58.964c13.569-16.268,21.713-37.239,21.713-60.207
				c0-23.624-8.614-45.139-22.887-61.593l73.461-73.461c11.803,9.727,26.896,15.587,43.293,15.587
				c37.547,0,68.267-30.72,68.267-68.267S480.28-1,442.733-1s-68.267,30.72-68.267,68.267c0,15.093,4.971,29.078,13.348,40.412
				l-74.017,74.017C297.735,168.82,277.31,161.133,255,161.133c-23.16,0-44.289,8.283-60.613,22.057l-87.446-88.954
				c7.256-9.89,11.526-22.143,11.526-35.503C118.467,25.453,92.013-1,58.733-1C25.453-1-1,25.453-1,58.733
				c0,33.28,26.453,59.733,59.733,59.733c13.765,0,26.354-4.535,36.394-12.197l87.741,88.497
				c-13.582,16.272-21.735,37.253-21.735,60.233c0,22.968,8.144,43.939,21.713,60.207l-44.516,44.516
				c-14.736-12.101-33.555-19.39-53.997-19.39C37.4,340.333-1,378.733-1,425.667S37.4,511,84.333,511
				c46.933,0,85.333-38.4,85.333-85.333c0-20.441-7.289-39.26-19.39-53.997l44.516-44.516
				c16.268,13.569,37.239,21.713,60.207,21.713s43.939-8.144,60.207-21.713l58.964,58.964
				C363.669,399.246,357.4,415.935,357.4,434.2c0,42.667,34.133,76.8,76.8,76.8s76.8-34.133,76.8-76.8S476.867,357.4,434.2,357.4z
				 M442.733,16.067c28.16,0,51.2,23.04,51.2,51.2c0,28.16-23.04,51.2-51.2,51.2c-28.16,0-51.2-23.04-51.2-51.2
				C391.533,39.107,414.573,16.067,442.733,16.067z M16.067,58.733c0-23.893,18.773-42.667,42.667-42.667S101.4,34.84,101.4,58.733
				S82.627,101.4,58.733,101.4S16.067,82.627,16.067,58.733z M84.333,493.933c-37.547,0-68.267-30.72-68.267-68.267
				S46.787,357.4,84.333,357.4c17.685,0,33.851,6.819,46.01,17.952c0.422,0.902,1.008,1.759,1.776,2.528
				c0.852,0.852,1.704,1.491,2.663,1.918c11.055,12.143,17.817,28.254,17.817,45.869C152.6,463.213,121.88,493.933,84.333,493.933z
				 M178.2,255c0-20.501,7.896-39.018,20.817-52.739c0.467-0.244,0.919-0.57,1.37-1.021c0.532-0.532,0.971-1.109,1.337-1.711
				C215.497,186.304,234.23,178.2,255,178.2c19.977,0,38.083,7.484,51.691,19.822c0.342,0.53,0.743,1.038,1.216,1.511
				c0.639,0.639,1.277,1.158,1.961,1.557C323.453,214.919,331.8,233.912,331.8,255c0,19.982-7.487,38.092-19.831,51.701
				c-1.153,0.42-2.25,1.1-3.209,2.059s-1.639,2.056-2.059,3.209C293.092,324.313,274.982,331.8,255,331.8
				C212.333,331.8,178.2,297.667,178.2,255z M434.2,493.933c-33.28,0-59.733-26.453-59.733-59.733s26.453-59.733,59.733-59.733
				s59.733,26.453,59.733,59.733S467.48,493.933,434.2,493.933z"/>
			<path d="M434.2,391.533c-23.893,0-42.667,18.773-42.667,42.667c0,5.12,3.413,8.533,8.533,8.533c5.12,0,8.533-3.413,8.533-8.533
				c0-14.507,11.093-25.6,25.6-25.6c5.12,0,8.533-3.413,8.533-8.533C442.733,394.947,439.32,391.533,434.2,391.533z"/>
			<path d="M84.333,374.467c-28.16,0-51.2,23.04-51.2,51.2c0,5.12,3.413,8.533,8.533,8.533s8.533-3.413,8.533-8.533
				c0-18.773,15.36-34.133,34.133-34.133c5.12,0,8.533-3.413,8.533-8.533S89.453,374.467,84.333,374.467z"/>
		</g>
	</g>
</g>
<g>
</g>
<g>
</g>
<g>
</g>
<g>
</g>
<g>
</g>
<g>
</g>
<g>
</g>
<g>
</g>
<g>
</g>
<g>
</g>
<g>
</g>
<g>
</g>
<g>
</g>
<g>
</g>
<g>
</g>
</svg>
