<?xml version="1.0" encoding="iso-8859-1"?>
<!-- Generator: Adobe Illustrator 19.0.0, SVG Export Plug-In . SVG Version: 6.00 Build 0)  -->
<svg version="1.1" id="Capa_1" xmlns="http://www.w3.org/2000/svg" xmlns:xlink="http://www.w3.org/1999/xlink" x="0px" y="0px"
	 viewBox="0 0 355.063 355.063" style="enable-background:new 0 0 355.063 355.063;" xml:space="preserve">
<g>
	<path d="M65.94,173.245c14.387,0,26.091-11.705,26.091-26.091s-11.705-26.091-26.091-26.091s-26.091,11.705-26.091,26.091
		S51.553,173.245,65.94,173.245z M65.94,136.063c6.116,0,11.091,4.976,11.091,11.091s-4.976,11.091-11.091,11.091
		s-11.091-4.976-11.091-11.091S59.824,136.063,65.94,136.063z"/>
	<path d="M288.454,173.245c14.387,0,26.091-11.705,26.091-26.091s-11.705-26.091-26.091-26.091s-26.091,11.705-26.091,26.091
		S274.067,173.245,288.454,173.245z M288.454,136.063c6.116,0,11.091,4.976,11.091,11.091s-4.976,11.091-11.091,11.091
		s-11.091-4.976-11.091-11.091S282.338,136.063,288.454,136.063z"/>
	<path d="M178.123,302.88c-14.387,0-26.091,11.705-26.091,26.091s11.705,26.091,26.091,26.091s26.091-11.705,26.091-26.091
		S192.509,302.88,178.123,302.88z M178.123,340.063c-6.116,0-11.091-4.976-11.091-11.091s4.976-11.091,11.091-11.091
		s11.091,4.976,11.091,11.091S184.238,340.063,178.123,340.063z"/>
	<path d="M311.839,253.231c-9.31,0-17.918,3.053-24.885,8.204l-103.629-71.501V83.209c19.561-3.547,34.447-20.693,34.447-41.262
		C217.772,18.817,198.955,0,175.826,0c-23.13,0-41.947,18.817-41.947,41.947c0,20.569,14.886,37.715,34.447,41.262v106.725
		L66.417,260.248c-6.648-4.429-14.623-7.017-23.193-7.017c-23.13,0-41.947,18.817-41.947,41.947s18.817,41.947,41.947,41.947
		c23.129,0,41.947-18.817,41.947-41.947c0-9.044-2.887-17.422-7.774-24.281l98.43-67.914L276.579,272.5
		c-4.224,6.544-6.686,14.326-6.686,22.677c0,23.129,18.817,41.947,41.947,41.947c23.13,0,41.947-18.817,41.947-41.947
		S334.969,253.231,311.839,253.231z M148.878,41.947c0-14.858,12.088-26.947,26.947-26.947c14.858,0,26.947,12.088,26.947,26.947
		c0,14.859-12.088,26.947-26.947,26.947C160.967,68.894,148.878,56.806,148.878,41.947z M43.224,322.125
		c-14.859,0-26.947-12.088-26.947-26.947s12.088-26.947,26.947-26.947c14.858,0,26.947,12.088,26.947,26.947
		S58.082,322.125,43.224,322.125z M311.839,322.125c-14.858,0-26.947-12.088-26.947-26.947s12.088-26.947,26.947-26.947
		c14.859,0,26.947,12.088,26.947,26.947S326.698,322.125,311.839,322.125z"/>
</g>
<g>
</g>
<g>
</g>
<g>
</g>
<g>
</g>
<g>
</g>
<g>
</g>
<g>
</g>
<g>
</g>
<g>
</g>
<g>
</g>
<g>
</g>
<g>
</g>
<g>
</g>
<g>
</g>
<g>
</g>
</svg>
