<?xml version="1.0" encoding="iso-8859-1"?>
<!-- Generator: Adobe Illustrator 19.0.0, SVG Export Plug-In . SVG Version: 6.00 Build 0)  -->
<svg version="1.1" id="Layer_1" xmlns="http://www.w3.org/2000/svg" xmlns:xlink="http://www.w3.org/1999/xlink" x="0px" y="0px"
	 viewBox="0 0 512 512" style="enable-background:new 0 0 512 512;" xml:space="preserve">
<g transform="translate(1 1)">
	<g>
		<g>
			<path d="M135.533,357.4c-33.28,0-59.733,26.453-59.733,59.733c0,5.12,3.413,8.533,8.533,8.533s8.533-3.413,8.533-8.533
				c0-23.893,18.773-42.667,42.667-42.667c5.12,0,8.533-3.413,8.533-8.533S140.653,357.4,135.533,357.4z"/>
			<path d="M101.4,33.133c-14.507,0-25.6,11.093-25.6,25.6c0,5.12,3.413,8.533,8.533,8.533s8.533-3.413,8.533-8.533
				S96.28,50.2,101.4,50.2c5.12,0,8.533-3.413,8.533-8.533S106.52,33.133,101.4,33.133z"/>
			<path d="M391.533,101.4c-30.319,0-56.314,17.245-68.829,42.531l-163.391-70.36c1.187-4.736,1.82-9.705,1.82-14.838
				C161.133,25.453,134.68-1,101.4-1C68.12-1,41.667,25.453,41.667,58.733c0,33.28,26.453,59.733,59.733,59.733
				c22.133,0,41.234-11.708,51.555-29.334l163.991,70.618c-1.437,5.905-2.213,12.079-2.213,18.449
				c0,20.638,8.002,39.263,21.076,53.011L199.425,348.223c-16.724-15.504-39.149-24.956-63.892-24.956
				c-52.053,0-93.867,41.813-93.867,93.867S83.48,511,135.533,511s93.867-41.813,93.867-93.867c0-21.401-7.073-41.068-19.014-56.813
				l138.549-118.082C361.098,250.306,375.727,255,391.533,255c42.667,0,76.8-34.133,76.8-76.8S434.2,101.4,391.533,101.4z
				 M101.4,101.4c-23.893,0-42.667-18.773-42.667-42.667S77.507,16.067,101.4,16.067c23.893,0,42.667,18.773,42.667,42.667
				S125.293,101.4,101.4,101.4z M135.533,493.933c-42.667,0-76.8-34.133-76.8-76.8s34.133-76.8,76.8-76.8
				c21.355,0,40.571,8.551,54.441,22.443c0.327,1.134,0.934,2.212,1.879,3.157c0.717,0.717,1.59,1.274,2.544,1.69
				c11.204,13.335,17.936,30.578,17.936,49.51C212.333,459.8,178.2,493.933,135.533,493.933z M391.533,237.933
				c-33.28,0-59.733-26.453-59.733-59.733c0-6.66,1.075-13.039,3.037-18.995c0.126-0.21,0.264-0.407,0.377-0.632
				c0.249-0.623,0.417-1.265,0.523-1.911c8.545-22.459,30.134-38.196,55.797-38.196c33.28,0,59.733,26.453,59.733,59.733
				C451.267,211.48,424.813,237.933,391.533,237.933z"/>
			<path d="M391.533,135.533c-23.893,0-42.667,18.773-42.667,42.667c0,5.12,3.413,8.533,8.533,8.533s8.533-3.413,8.533-8.533
				c0-14.507,11.093-25.6,25.6-25.6c5.12,0,8.533-3.413,8.533-8.533C400.067,138.947,396.653,135.533,391.533,135.533z"/>
		</g>
	</g>
</g>
<g>
</g>
<g>
</g>
<g>
</g>
<g>
</g>
<g>
</g>
<g>
</g>
<g>
</g>
<g>
</g>
<g>
</g>
<g>
</g>
<g>
</g>
<g>
</g>
<g>
</g>
<g>
</g>
<g>
</g>
</svg>
