<?xml version="1.0" encoding="iso-8859-1"?>
<!-- Generator: Adobe Illustrator 17.1.0, SVG Export Plug-In . SVG Version: 6.00 Build 0)  -->
<!DOCTYPE svg PUBLIC "-//W3C//DTD SVG 1.1//EN" "http://www.w3.org/Graphics/SVG/1.1/DTD/svg11.dtd">
<svg version="1.1" id="Capa_1" xmlns="http://www.w3.org/2000/svg" xmlns:xlink="http://www.w3.org/1999/xlink" x="0px" y="0px"
	 viewBox="0 0 323.56 323.56" style="enable-background:new 0 0 323.56 323.56;" xml:space="preserve">
<g>
	<path d="M161.954,112.676c24.448,0,44.338-19.89,44.338-44.338c0-24.447-19.89-44.337-44.338-44.337
		c-24.447,0-44.337,19.89-44.337,44.337C117.617,92.786,137.507,112.676,161.954,112.676z"/>
	<path d="M284.135,259.316c0.343,0.074,0.682,0.159,1.015,0.258c-0.128-0.04-0.244-0.085-0.376-0.124l-70.026-20.624
		c-0.908-0.267-1.903-0.522-2.947-0.768v-91.043l39.848-36.979c5.416-5.027,7.894-14.478,5.639-21.516l-24.883-77.657
		C230.355,4.468,224.177,0,217.382,0c-1.254,0-2.502,0.153-3.708,0.457l-1.933,0.486c-3.935,0.99-7.167,3.457-9.102,6.944
		c-1.934,3.486-2.314,7.534-1.071,11.396l19.988,62.104c1.091,3.391-0.3,8.679-2.917,11.095l-32.802,30.269h-47.767L105.27,92.484
		c-2.617-2.417-4.008-7.705-2.917-11.095l19.988-62.105c1.243-3.862,0.862-7.91-1.071-11.396c-1.935-3.487-5.167-5.954-9.104-6.945
		l-1.929-0.484C109.029,0.153,107.781,0,106.528,0c-6.795,0-12.973,4.467-15.022,10.864L66.623,88.521
		c-2.255,7.038,0.223,16.489,5.64,21.516l41.633,38.636c0.594,0.551,1.237,1.037,1.904,1.486v87.629
		c-1.611,0.355-3.131,0.741-4.47,1.149l-72.328,22.059c-1.405,0.428-5.651,2.936-6.556,3.877c-2.521,2.623-3.826,6.178-3.675,10.009
		l0.637,16.076c0.315,7.96,6.747,15.019,14.643,16.071l97.175,12.957c2.417,2.223,5.641,3.573,9.241,3.573
		c0.625,0,1.26-0.041,1.889-0.122l11.337-1.455l10.535,1.404c0.651,0.087,1.31,0.131,1.956,0.131c4.033,0,7.591-1.699,10.061-4.431
		l94.273-12.103c8.009-1.027,14.282-8.158,14.282-16.232v-18C294.8,266.063,290.303,260.639,284.135,259.316z M136.8,292.752v16.556
		l-91.428-12.19c-3.059-0.408-5.85-3.471-5.972-6.556l-0.637-16.076c-0.044-1.103,0.265-2.03,0.892-2.683
		c0.592-0.615,1.426-0.94,2.413-0.94c0.195,0,0.397,0.014,0.602,0.039l97.326,12.251C137.991,285.895,136.8,289.237,136.8,292.752z
		 M64.743,263.601l49.503-15.098c4.895-1.491,13.188-2.751,18.108-2.751h61.389c4.932,0,13.26,1.223,18.183,2.668l46.107,13.579
		l-99.349,13.426L64.743,263.601z M284.8,290.752c0,2.983-2.596,5.935-5.556,6.314L151.082,313.52c0,0-4.032,0.857-4.282-3.768
		c-0.229-4.244,0-17,0-17c0-2.999,2.607-5.982,5.58-6.384l128.179-17.322c0.218-0.029,0.435-0.044,0.645-0.044
		c2.151,0,3.597,1.507,3.597,3.75V290.752z"/>
</g>
<g>
</g>
<g>
</g>
<g>
</g>
<g>
</g>
<g>
</g>
<g>
</g>
<g>
</g>
<g>
</g>
<g>
</g>
<g>
</g>
<g>
</g>
<g>
</g>
<g>
</g>
<g>
</g>
<g>
</g>
</svg>
