<?xml version="1.0" encoding="iso-8859-1"?>
<!-- Generator: Adobe Illustrator 19.0.0, SVG Export Plug-In . SVG Version: 6.00 Build 0)  -->
<svg version="1.1" id="Layer_1" xmlns="http://www.w3.org/2000/svg" xmlns:xlink="http://www.w3.org/1999/xlink" x="0px" y="0px"
	 viewBox="0 0 511.998 511.998" style="enable-background:new 0 0 511.998 511.998;" xml:space="preserve">
<g>
	<g>
		<path d="M369.124,82.249l-19.242,27.29l14.352,10.12l-47.751,67.716c-6.354-4.854-13.011-9.275-19.933-13.236V33.391h27.471V0
			H89.792v33.391h27.472v140.745c-25.651,14.662-47.385,35.415-63.262,60.508c-18.259,28.859-27.911,62.241-27.911,96.54
			c0,99.701,81.113,180.814,180.815,180.814s180.815-81.113,180.815-180.814c0-16.476-2.213-32.745-6.585-48.479l71.177-100.94
			l14.352,10.121l19.242-27.29L369.124,82.249z M206.906,478.609c-72.774,0-133.39-53.005-145.296-122.435H352.2
			C340.297,425.603,279.679,478.609,206.906,478.609z M344.306,276.996l2.632,7.983c4.031,12.221,6.401,24.904,7.127,37.803H59.742
			c1.414-24.993,9.098-49.136,22.477-70.283c14.49-22.9,34.95-41.367,59.172-53.406l9.265-4.606V33.391h112.502v161.096l9.264,4.606
			c13.022,6.471,25.038,14.87,35.714,24.961l14.007,13.239l69.379-98.39l33.502,23.623L344.306,276.996z"/>
	</g>
</g>
<g>
</g>
<g>
</g>
<g>
</g>
<g>
</g>
<g>
</g>
<g>
</g>
<g>
</g>
<g>
</g>
<g>
</g>
<g>
</g>
<g>
</g>
<g>
</g>
<g>
</g>
<g>
</g>
<g>
</g>
</svg>
