<?xml version="1.0" encoding="iso-8859-1"?>
<!-- Generator: Adobe Illustrator 19.0.0, SVG Export Plug-In . SVG Version: 6.00 Build 0)  -->
<svg version="1.1" id="Layer_1" xmlns="http://www.w3.org/2000/svg" xmlns:xlink="http://www.w3.org/1999/xlink" x="0px" y="0px"
	 viewBox="0 0 496 496" style="enable-background:new 0 0 496 496;" xml:space="preserve">
<g>
	<g>
		<g>
			<path d="M385.76,222.808l26.288-26.288l-56.56-56.56L329.2,166.248c-10.336-6.08-21.48-10.92-33.192-14.592V16h16V0H184v16h16
				v135.648c-11.712,3.68-22.864,8.52-33.192,14.592l-26.288-26.288l-56.56,56.56l26.288,26.288
				c-7.664,12.944-13.408,26.752-17.136,41.192H56v80h37.112c3.728,14.448,9.472,28.248,17.128,41.192l-26.28,26.28l56.56,56.568
				l26.288-26.288c12.944,7.664,26.752,13.408,41.192,17.136V496h80v-37.112c14.448-3.728,28.248-9.472,41.192-17.136l26.288,26.288
				l56.56-56.568l-26.28-26.28c7.656-12.944,13.4-26.752,17.128-41.192H440v-80h-37.112
				C399.168,249.552,393.424,235.752,385.76,222.808z M210.856,206.952l5.144-1.968V16h64v188.984l5.144,1.968
				c21.064,8.072,38.432,22.752,50.208,41.048H160.648C172.424,229.704,189.792,215.024,210.856,206.952z M343.816,264
				c5.264,12.48,8.184,26.032,8.184,40c0,57.344-46.656,104-104,104s-104-46.656-104-104c0-13.968,2.92-27.52,8.184-40H343.816z
				 M424,328h-33.904l-1.352,6.32c-3.64,16.936-10.312,32.992-19.832,47.712l-3.512,5.432l24.032,24.016l-33.936,33.944
				L331.472,421.4l-5.432,3.504c-14.72,9.52-30.776,16.192-47.712,19.832l-6.328,1.36V480h-48v-33.904l-6.32-1.352
				c-16.936-3.64-32.992-10.312-47.712-19.832l-5.432-3.504l-24.024,24.024l-33.936-33.944l24.032-24.016l-3.512-5.432
				c-9.52-14.72-16.192-30.776-19.832-47.712l-1.36-6.328H72v-48h33.904l1.352-6.32c3.64-16.936,10.312-32.992,19.832-47.712
				l3.504-5.432l-24.024-24.024l33.936-33.936l24.024,24.024l5.432-3.504c9.28-6,19.352-10.904,30.032-14.656v25.688
				c-43.288,18.952-72,62.424-72,109.872c0,66.168,53.832,120,120,120s120-53.832,120-120c0-47.456-28.712-90.92-72-109.872V168.44
				c10.68,3.752,20.752,8.648,30.032,14.656l5.432,3.504l24.024-24.024l33.936,33.936l-24.024,24.024l3.504,5.432
				c9.52,14.72,16.192,30.776,19.832,47.712l1.368,6.32H424V328z"/>
			<path d="M312,320c13.232,0,24-10.768,24-24s-10.768-24-24-24s-24,10.768-24,24S298.768,320,312,320z M312,288
				c4.416,0,8,3.584,8,8c0,4.416-3.584,8-8,8c-4.416,0-8-3.584-8-8C304,291.584,307.584,288,312,288z"/>
			<path d="M216,376c22.056,0,40-17.944,40-40c0-22.056-17.944-40-40-40c-22.056,0-40,17.944-40,40C176,358.056,193.944,376,216,376
				z M216,312c13.232,0,24,10.768,24,24s-10.768,24-24,24s-24-10.768-24-24S202.768,312,216,312z"/>
			<rect x="400" y="40" width="24" height="16"/>
			<rect x="360" y="40" width="24" height="16"/>
			<rect x="384" y="16" width="16" height="24"/>
			<rect x="384" y="56" width="16" height="24"/>
			<rect x="40" y="24" width="24" height="16"/>
			<rect y="24" width="24" height="16"/>
			<rect x="24" width="16" height="24"/>
			<rect x="24" y="40" width="16" height="24"/>
			<rect x="120" y="96" width="16" height="16"/>
			<rect x="88" y="96" width="16" height="16"/>
			<rect x="104" y="80" width="16" height="16"/>
			<rect x="104" y="112" width="16" height="16"/>
			<rect x="480" y="200" width="16" height="16"/>
			<rect x="448" y="200" width="16" height="16"/>
			<rect x="464" y="184" width="16" height="16"/>
			<rect x="464" y="216" width="16" height="16"/>
			<rect x="56" y="208" width="16" height="16"/>
			<rect x="24" y="208" width="16" height="16"/>
			<rect x="40" y="192" width="16" height="16"/>
			<rect x="40" y="224" width="16" height="16"/>
		</g>
	</g>
</g>
<g>
</g>
<g>
</g>
<g>
</g>
<g>
</g>
<g>
</g>
<g>
</g>
<g>
</g>
<g>
</g>
<g>
</g>
<g>
</g>
<g>
</g>
<g>
</g>
<g>
</g>
<g>
</g>
<g>
</g>
</svg>
