<?xml version="1.0" encoding="iso-8859-1"?>
<!-- Generator: Adobe Illustrator 18.0.0, SVG Export Plug-In . SVG Version: 6.00 Build 0)  -->
<!DOCTYPE svg PUBLIC "-//W3C//DTD SVG 1.1//EN" "http://www.w3.org/Graphics/SVG/1.1/DTD/svg11.dtd">
<svg version="1.1" id="Capa_1" xmlns="http://www.w3.org/2000/svg" xmlns:xlink="http://www.w3.org/1999/xlink" x="0px" y="0px"
	 viewBox="0 0 417.379 417.379" style="enable-background:new 0 0 417.379 417.379;" xml:space="preserve">
<path d="M356.372,398.354l-1.081-10.085c-0.315-2.949-0.895-5.882-1.719-8.717c-1.45-4.989-4.392-16.313-7.803-36.094
	c-3.651-21.175-15.983-38.147-23.01-46.38c-2.983-3.496-5.229-7.533-6.677-12.001c-3.332-10.285-11.406-35.256-14.402-44.991
	c-4.324-14.054-24.416-37.221-37.221-45.625c-4.484-2.943-13.977-8.166-24.97-14.212c-11.605-6.383-24.758-13.619-33.087-18.824
	c-14.698-9.187-44.481-9.524-52.106-9.454c-8.335-14.73-16.738-48.675-17.499-56.301c-0.775-7.749-3.136-31.332-7.172-43.209
	c-0.963-2.831-1.375-5.731-1.227-8.62c0.214-4.169,0.077-9.417-0.406-15.594c-0.607-7.852-3.504-15.271-8.372-21.453l-3.916-4.982
	c-1.054-1.341-2.769-2.077-4.438-1.724c-1.679,0.355-2.961,1.619-3.34,3.283l-1.444,6.32c0,0-0.63,3.521-0.628,5
	c0.011,6.718,0.613,25.87,6.21,35.049c-3.099,36.488,0.682,54.757,4.827,70.342c0.837,3.141,0.934,6.525,0.289,10.061
	c-2.681,14.737,3.914,32.217,8.083,41.326c1.138,2.486,1.941,5.117,2.389,7.826l0.615,3.675h-4.29
	c-1.37-1.348-4.505-4.805-7.766-10.951c-0.989-1.865-2.745-3.236-4.823-3.609c-12.761-2.289-40.782,11.487-46.019,18.816
	c-3.436,4.812-6.626,17.356-2.558,29.001c2.354,6.736,8.111,15.608,22.175,19.627c9.272,2.648,17.44,2.011,24.277-1.899
	c9.365-5.355,13.166-15.174,14.168-18.281l2.989-2.562c1.425,4.924,2.949,13.398-1.068,19.137
	c-8.183,11.69-8.533,67.576-8.542,75.408c-1.781,8.682-2.159,25.766-2.16,38.65c-0.001,9.219-1.878,18.188-5.544,26.682
	c-11.439,6.339-24.632,12.771-33.794,17.096c-2.834,1.335-4.292,4.289-3.628,7.351c0.664,3.065,3.219,5.152,6.354,5.193
	c16.259,0.227,37.624,0.135,47.122-1.579c4.453-0.815,8.008-4.099,9.056-8.37c1.39-5.699,6.316-11.648,14.251-17.208
	c31.492-19.688,39.222-27.879,52.692-49.598c19.58-18.756,49.418-58.531,54.394-65.219l5.762-1.28
	c10.831,18.532,31.269,47.964,41.55,59.735c1.832,2.098,3.147,4.686,3.804,7.483c3.369,14.359,15.636,36.298,22.648,48.098
	c1.632,2.744,2.494,5.877,2.494,9.06v3.338c0,7.417-1.562,14.904-5.487,21.196c-1.222,1.959-1.209,4.399,0.026,6.341
	c1.104,1.734,2.98,2.753,5.003,2.753c0.206,0,0.415-0.011,0.624-0.033l10.207-1.056c4.573-0.473,8.649-2.835,11.352-6.609
	C355.876,406.417,356.8,402.346,356.372,398.354z M120.653,346.307c0.001-12.75,0.365-29.64,2.093-37.705
	c0.045-0.209,0.067-0.41,0.067-0.625c-0.001-24.771,1.986-64.471,7.458-72.289c7.875-11.251,0.604-28.207,0.29-28.923
	c-0.381-0.871-1.152-1.51-2.079-1.722c-0.927-0.213-1.899,0.028-2.621,0.647l-7,6c-0.466,0.399-0.798,0.931-0.952,1.525
	c-0.026,0.104-2.806,10.49-11.621,15.53c-5.38,3.076-11.99,3.526-19.65,1.338c-9.307-2.659-15.416-7.987-18.158-15.837
	c-3.447-9.867-0.493-20.36,1.775-23.535c1.813-2.539,9.663-7.649,19.662-11.809c8.823-3.67,15.418-4.979,19.119-4.774
	c0.965,0.054,1.83,0.625,2.294,1.473c4.823,8.817,9.401,12.542,9.61,12.708c0.532,0.425,1.192,0.657,1.874,0.657h9
	c0.882,0,1.72-0.388,2.29-1.062c0.569-0.673,0.814-1.563,0.669-2.434l-1.199-7.164c-0.533-3.228-1.492-6.37-2.852-9.34
	c-3.12-6.817-10.11-24.143-7.636-37.753c0.805-4.412,0.673-8.678-0.393-12.679c-3.185-11.973-7.998-30.066-4.562-69.293
	c0.062-0.703-0.117-1.409-0.522-1.987c-4.579-6.527-5.708-22.246-5.811-30.839c-0.023-1.937,0.188-3.864,0.62-5.753l0.589-2.58
	l1.901,2.418c4.132,5.247,6.589,11.542,7.104,18.208c0.458,5.839,0.595,10.964,0.396,14.82c-0.188,3.651,0.33,7.304,1.537,10.858
	c2.532,7.45,4.848,21.539,6.883,41.875c0.871,8.737,9.848,45.251,19.229,60.319c1.676,2.69,3.277,4.57,4.89,5.737
	c1.234,0.893,2.981,0.832,4.03-0.273c1.116-1.176,1.074-2.916,0.099-4.041c10.902,0.215,33.01,1.542,44.148,8.504
	c8.471,5.294,21.701,12.572,33.375,18.994c8.599,4.73,16.797,9.24,21.816,12.256c-6.226,7.934-26.279,32.162-46.85,42.943
	c-8.253-2.788-52.149-16.243-62.527,9.128c-9.053,22.129-13.039,56.349-13.204,57.795c-0.004,0.034-0.007,0.068-0.01,0.102
	c-0.024,0.303-2.476,30.553-7.953,54.342c-0.001,0.004-0.002,0.008-0.003,0.012c-0.901,3.969-3.001,11.302-3.023,11.46
	c-0.195,1.366-3.402,5.036-14.023,10.357l3.391-7.566C118.484,366.803,120.652,356.7,120.653,346.307z M166.333,323.905
	c-7.589,4.446-19.135,17.037-30.317,29.233c-0.07,0.077-0.142,0.154-0.212,0.23c4.018-21.367,5.89-43.813,5.996-45.105
	c0.17-1.454,4.201-35.162,12.79-56.159c3.324-8.124,12.191-11.956,26.354-11.388c10.273,0.411,20.335,3.055,25.793,4.732
	C193.836,262.732,171.025,310.249,166.333,323.905z M196.744,321.796c-0.185,0.176-0.347,0.376-0.481,0.593
	c-12.604,20.361-19.297,27.991-48.279,46.301c-0.898,0.567-2.847,1.789-2.889,1.819c-9.185,6.421-14.961,13.595-16.704,20.744
	c-0.485,1.975-2.176,3.503-4.301,3.893c-7.036,1.27-23.363,1.795-45.968,1.483c-0.153-0.002-0.472-0.006-0.571-0.465
	c-0.099-0.454,0.185-0.587,0.324-0.652c7.447-3.517,17.539-8.415,27.236-13.541l-0.326,0.728c-0.953,2.127-0.601,4.687,1.067,6.316
	c1.043,1.019,2.39,1.55,3.764,1.55c0.801,0,1.611-0.181,2.376-0.552c17.022-8.248,18.448-13.427,18.756-15.376
	c0.969-3.134,1.891-6.571,2.743-10.232c1-0.854,1.833-1.646,2.527-2.402c1.437-1.556,2.916-3.169,4.421-4.81
	c10.32-11.256,23.164-25.263,29.714-28.54c0.74-0.37,1.291-1.033,1.535-1.824c2.757-8.932,18.037-41.577,30.565-63.263
	c6.233,2.84,22.608,9.878,34.83,11.369C225.353,289.947,208.79,310.324,196.744,321.796z M262.163,253.04l-9,2
	c-0.706,0.157-1.332,0.564-1.762,1.145c-0.114,0.154-3.999,5.399-9.885,13.036c-10.553,0.164-28.993-7.62-36.183-10.853
	c3.164-5.188,6.044-9.398,8.361-12.003c10.954-5.594,22.911-15.249,35.553-28.723c6.657-7.095,11.685-13.33,14.199-16.563
	c11.905,8.88,28.858,28.935,32.5,40.772c0.258,0.838,0.556,1.796,0.882,2.839c-6.31,9.097-22.42,13.926-28.109,15.389
	c-1.189-1.964-2.297-3.842-3.301-5.599C264.767,253.338,263.446,252.756,262.163,253.04z M348.284,406.683
	c-1.678,2.073-4.063,3.366-6.715,3.64l-10.097,1.043c4.148-6.953,6.341-14.904,6.341-23.002v-4.613
	c0-4.262-1.153-8.455-3.336-12.126c-5.504-9.261-18.661-32.32-21.965-46.402c-0.88-3.749-2.652-7.228-5.127-10.061
	c-8.547-9.785-24.272-32.056-35.373-49.744c6.53-1.815,19.268-6.151,26.949-13.972c3.702,11.649,8.903,27.73,11.414,35.48
	c1.691,5.222,4.322,9.948,7.82,14.047c6.628,7.765,18.254,23.742,21.662,43.504c3.46,20.07,6.468,31.639,7.953,36.75
	c0.727,2.498,1.236,5.082,1.515,7.681l1.119,10.449C350.728,402.008,349.962,404.61,348.284,406.683z"/>
<g>
</g>
<g>
</g>
<g>
</g>
<g>
</g>
<g>
</g>
<g>
</g>
<g>
</g>
<g>
</g>
<g>
</g>
<g>
</g>
<g>
</g>
<g>
</g>
<g>
</g>
<g>
</g>
<g>
</g>
</svg>
