<?xml version="1.0" encoding="iso-8859-1"?>
<!-- Generator: Adobe Illustrator 16.0.0, SVG Export Plug-In . SVG Version: 6.00 Build 0)  -->
<!DOCTYPE svg PUBLIC "-//W3C//DTD SVG 1.1//EN" "http://www.w3.org/Graphics/SVG/1.1/DTD/svg11.dtd">
<svg version="1.1" id="Capa_1" xmlns="http://www.w3.org/2000/svg" xmlns:xlink="http://www.w3.org/1999/xlink" x="0px" y="0px"
	 width="121.561px" height="121.561px" viewBox="0 0 121.561 121.561" style="enable-background:new 0 0 121.561 121.561;"
	 xml:space="preserve">
<g>
	<g>
		<path d="M96.059,106.785c-0.846-6.973-8.11-7.422-20.146-8.135V68.133c0-0.158-0.024-0.307-0.031-0.462l0.038-0.019
			C84.257,63.62,95.375,56.4,95.683,40.314c0.227-11.861-9.971-20.451-18.181-27.367c-2.38-2.005-6.747-5.686-7.498-7.135
			C69.753,2.537,67.032,0,63.724,0c-1.08,0-2.128,0.278-3.068,0.809C59.716,0.278,58.667,0,57.586,0
			c-3.31,0-6.029,2.537-6.278,5.812c-0.751,1.449-5.119,5.13-7.515,7.148c-8.193,6.902-18.39,15.492-18.164,27.353
			c0.309,16.201,9.261,21.798,18.493,26.182l1.155,0.418c-0.045,0.399-0.082,0.804-0.082,1.22v30.289
			c-11.764,0.926-18.865,1.564-19.693,8.363c-0.334,2.76,0.527,5.468,2.426,7.625c5.354,6.084,19.994,7.091,28.244,7.15
			c0.018,0,0.033,0,0.051,0c1.748,0,3.342-0.66,4.559-1.738c1.215,1.078,2.809,1.738,4.559,1.738c0.019,0,0.033,0,0.051,0
			c8.252-0.061,22.894-1.066,28.244-7.152C95.532,112.253,96.393,109.545,96.059,106.785z M64.292,55.087l-3.738,3.764l-3.625-3.805
			c-0.012,0.003-0.025,0.004-0.037,0.007c-1.414,0.338-2.805,0.875-4.112,1.574c-10.152-4.604-14.371-6.6-14.562-16.553
			c-0.112-5.857,7.539-12.303,13.688-17.483c3.353-2.824,6.541-5.509,8.75-8.265c2.209,2.756,5.398,5.442,8.762,8.274
			c6.143,5.177,13.788,11.62,13.676,17.474c-0.186,9.63-4.071,11.78-13.633,16.13l-0.728,0.331
			C68.732,56.535,65.762,55.448,64.292,55.087z"/>
		<circle cx="60.553" cy="39.21" r="15.006"/>
	</g>
</g>
<g>
</g>
<g>
</g>
<g>
</g>
<g>
</g>
<g>
</g>
<g>
</g>
<g>
</g>
<g>
</g>
<g>
</g>
<g>
</g>
<g>
</g>
<g>
</g>
<g>
</g>
<g>
</g>
<g>
</g>
</svg>
