<?xml version="1.0" encoding="iso-8859-1"?>
<!-- Generator: Adobe Illustrator 19.0.0, SVG Export Plug-In . SVG Version: 6.00 Build 0)  -->
<svg version="1.1" id="Layer_1" xmlns="http://www.w3.org/2000/svg" xmlns:xlink="http://www.w3.org/1999/xlink" x="0px" y="0px"
	 viewBox="0 0 472.615 472.615" style="enable-background:new 0 0 472.615 472.615;" xml:space="preserve">
<g>
	<g>
		<path d="M418.631,210.779c4.448-10.033,6.678-21.24,5.964-33.046c-2.25-37.175-34.417-67.189-72.152-67.487
			c-35.135-0.277-64.539,23.971-71.745,56.404c-10.782-12.976-27.747-20.767-46.469-18.978c-20.314,1.94-37.829,15.96-44.764,34.902
			c-4.079,11.139-3.83,21.685-1.152,31.235c-20.813,7.493-35.698,27.12-35.698,50.226c0,30.803,23.586,51.01,54.796,51.01h1.127
			c6.239,13.899,24.027,18.524,32.105,18.524c16.555,0,25.413-2.769,41.863-18.524c0,0,11.488,18.462,39.387,18.462
			c26.532,0,39.777-15.827,41.595-18.173c67.578,31.61,104.204-21.226,104.204-51.298
			C467.692,236.221,446.16,213.377,418.631,210.779z"/>
	</g>
</g>
<g>
	<g>
		<path d="M142.769,130.822c-53.438,0-109.121-11.247-137.846-32.517v45.603c1.223,19.041,53.38,45.038,137.846,45.038
			c8.689,0,16.945-0.336,24.93-0.851c0.722-4.132,1.785-8.238,3.276-12.303c9.644-26.346,33.741-45.086,61.38-47.73
			c2.418-0.231,4.813-0.337,7.178-0.337c11.563,0,22.746,2.682,32.775,7.682c2.447-4.043,5.285-7.8,8.307-11.401V98.305
			C251.89,119.575,196.207,130.822,142.769,130.822z"/>
	</g>
</g>
<g>
	<g>
		<path d="M159.123,208.26c-5.455,0.233-10.914,0.379-16.353,0.379c-53.438,0-109.121-11.247-137.846-32.516v45.594
			c1.175,18.29,49.443,42.942,128.113,44.86c-0.028-0.851-0.113-1.683-0.113-2.543C132.923,242.211,142.871,221.923,159.123,208.26z
			"/>
	</g>
</g>
<g>
	<g>
		<path d="M142.769,0C64.197,0,4.923,28.063,4.923,65.379v0.712c1.223,19.041,53.38,45.038,137.846,45.038
			s136.623-25.998,137.846-45.038v-0.712C280.615,28.063,221.342,0,142.769,0z"/>
	</g>
</g>
<g>
	<g>
		<path d="M180.874,423.385c-3.545-13.882-14.375-24.712-28.258-28.258v-31.188c28.224-0.886,53.712-5.29,74.291-12.61
			c-10.045-2.58-21.139-7.916-29.181-17.104c-30.112-3.245-53.053-21.617-61.367-47.853C84.926,285.512,32.501,274.36,4.923,253.937
			v44.895c0,35.734,54.401,62.998,128,65.254v31.041c-13.883,3.546-24.714,14.375-28.258,28.258H24.615v19.692h80.049
			c4.332,16.937,19.791,29.539,38.105,29.539s33.772-12.601,38.105-29.539h80.049v-19.692H180.874z"/>
	</g>
</g>
<g>
</g>
<g>
</g>
<g>
</g>
<g>
</g>
<g>
</g>
<g>
</g>
<g>
</g>
<g>
</g>
<g>
</g>
<g>
</g>
<g>
</g>
<g>
</g>
<g>
</g>
<g>
</g>
<g>
</g>
</svg>
