<?xml version="1.0" encoding="iso-8859-1"?>
<!-- Generator: Adobe Illustrator 17.1.0, SVG Export Plug-In . SVG Version: 6.00 Build 0)  -->
<!DOCTYPE svg PUBLIC "-//W3C//DTD SVG 1.1//EN" "http://www.w3.org/Graphics/SVG/1.1/DTD/svg11.dtd">
<svg version="1.1" id="Capa_1" xmlns="http://www.w3.org/2000/svg" xmlns:xlink="http://www.w3.org/1999/xlink" x="0px" y="0px"
	 viewBox="0 0 389.895 389.895" style="enable-background:new 0 0 389.895 389.895;" xml:space="preserve">
<g>
	<path d="M287.734,267.822c0-21.036-40.476-31.29-80.634-32.425V129.981l12.867,12.867c1.464,1.464,3.384,2.196,5.303,2.196
		s3.839-0.732,5.303-2.196c2.929-2.93,2.929-7.678,0-10.607l-25.67-25.67c-2.929-2.928-7.678-2.928-10.606,0l-25.67,25.67
		c-2.929,2.93-2.929,7.678,0,10.607c2.928,2.928,7.677,2.928,10.606,0l12.867-12.867v105.415
		c-40.174,1.128-80.682,11.382-80.682,32.426v89.54h0.262c0,22.352,45.699,32.532,88.158,32.532s88.158-10.181,88.158-32.532h-0.262
		V267.822z M192.1,250.4v9.731c0,4.143,3.358,7.5,7.5,7.5s7.5-3.357,7.5-7.5v-9.73c45.094,1.253,65.634,13.547,65.634,17.42
		c0,4.084-22.805,17.533-73.158,17.533s-73.158-13.449-73.158-17.533C126.418,263.948,146.973,251.647,192.1,250.4z
		 M199.838,374.895c-50.354,0-73.158-13.449-73.158-17.532h-0.262v-27.665c13.629,6.434,37.065,10.927,72.455,14.259
		c2.349,0.222,4.942,0.33,7.743,0.33c10.209,0,23.146-1.447,36.795-4.168c4.062-0.81,6.699-4.76,5.889-8.821
		c-0.81-4.062-4.758-6.697-8.822-5.89c-16.025,3.194-30.677,4.514-40.199,3.615c-24.676-2.323-42.889-5.157-55.681-8.664
		c-16.826-4.612-18.181-8.862-18.181-8.901v-24.395c16.938,9.039,45.722,13.292,73.158,13.292s56.221-4.253,73.158-13.292v70.299
		h0.262C272.997,361.445,250.192,374.895,199.838,374.895z"/>
	<path d="M290.299,80.34c0.005-0.33,0.007-0.658,0.007-0.983C290.306,35.6,254.707,0,210.95,0
		c-41.367,0-75.442,31.813-79.042,72.259c-7.286-2.895-15.081-4.395-23.042-4.395c-34.465,0-62.505,28.039-62.505,62.505
		s28.04,62.506,62.469,62.506l49.188,0.24c0.013,0,0.025,0,0.038,0c4.125,0,7.479-3.334,7.499-7.463
		c0.02-4.143-3.321-7.517-7.463-7.537l-49.224-0.24c-26.194,0-47.505-21.311-47.505-47.506c0-26.194,21.311-47.505,47.505-47.505
		c9.411,0,18.515,2.757,26.329,7.973c2.381,1.588,5.462,1.685,7.938,0.243s3.914-4.167,3.707-7.023l-0.033-0.453
		c-0.109-1.493-0.212-2.903-0.212-4.247C146.594,43.87,175.464,15,210.95,15s64.356,28.87,64.356,64.356
		c0,2.319-0.167,4.843-0.51,7.715c-0.269,2.247,0.492,4.496,2.07,6.119c1.578,1.622,3.803,2.437,6.06,2.239
		c1.479-0.135,2.703-0.198,3.851-0.198c23.024,0,41.756,18.731,41.756,41.756s-18.731,41.757-41.719,41.757l-52.676-0.258
		c-0.013,0-0.025,0-0.038,0c-4.125,0-7.479,3.334-7.499,7.463c-0.02,4.143,3.321,7.517,7.463,7.537l52.713,0.258
		c31.295,0,56.756-25.461,56.756-56.757C343.533,106.874,319.96,82.164,290.299,80.34z"/>
</g>
<g>
</g>
<g>
</g>
<g>
</g>
<g>
</g>
<g>
</g>
<g>
</g>
<g>
</g>
<g>
</g>
<g>
</g>
<g>
</g>
<g>
</g>
<g>
</g>
<g>
</g>
<g>
</g>
<g>
</g>
</svg>
