<?xml version="1.0" encoding="iso-8859-1"?>
<!-- Generator: Adobe Illustrator 16.0.0, SVG Export Plug-In . SVG Version: 6.00 Build 0)  -->
<!DOCTYPE svg PUBLIC "-//W3C//DTD SVG 1.1//EN" "http://www.w3.org/Graphics/SVG/1.1/DTD/svg11.dtd">
<svg version="1.1" id="Capa_1" xmlns="http://www.w3.org/2000/svg" xmlns:xlink="http://www.w3.org/1999/xlink" x="0px" y="0px"
	 width="114.883px" height="114.883px" viewBox="0 0 114.883 114.883" style="enable-background:new 0 0 114.883 114.883;"
	 xml:space="preserve">
<g>
	<path d="M19.298,63.453H39.64c1.67,0,3.026-1.354,3.026-3.026V47.183H55.91c1.67,0,3.026-1.356,3.026-3.026V23.812
		c0-1.664-1.356-3.026-3.026-3.026H42.667V7.542c0-1.669-1.356-3.026-3.026-3.026H19.298c-1.673,0-3.026,1.357-3.026,3.026v13.243
		H3.026C1.356,20.786,0,22.148,0,23.812v20.345c0,1.67,1.356,3.026,3.026,3.026h13.246v13.243
		C16.272,62.099,17.62,63.453,19.298,63.453z M6.046,41.13V26.838H19.29c1.673,0,3.026-1.348,3.026-3.026V10.569h14.292v13.243
		c0,1.679,1.357,3.026,3.026,3.026h13.243V41.13H39.634c-1.669,0-3.026,1.363-3.026,3.026V57.4H22.316V44.157
		c0-1.664-1.354-3.026-3.026-3.026H6.046z M49.875,76.722c0.085-0.544,2.119-13.358,13.443-13.742
		c4.915-0.159,16.554-2.3,18.723-18.441c0.225-1.655-0.928-3.181-2.589-3.402c-1.69-0.304-3.18,0.937-3.404,2.601
		c-1.147,8.5-5.497,12.948-12.942,13.196c-12.781,0.455-18.001,11.916-19.109,18.383c-4.448,1.536-17.623,6.348-22,10.722
		c-2.674,2.672-4.474,5.952-5.06,9.244c-0.653,3.653,0.26,7.022,2.512,9.269c1.779,1.785,4.193,2.719,6.983,2.719
		c3.984,0,8.189-1.915,11.538-5.272c5.003-4.982,10.56-21.468,11.177-23.324c0.057-0.153,0-0.324,0.018-0.484
		C49.517,77.762,49.789,77.29,49.875,76.722z M33.697,97.717c-2.155,2.151-4.933,3.499-7.259,3.499
		c-0.798,0-1.912-0.165-2.704-0.951c-1.132-1.141-1.011-2.944-0.836-3.919c0.37-2.057,1.605-4.256,3.39-6.041
		c2.202-2.211,8.958-5.248,14.969-7.554C38.937,88.756,35.898,95.518,33.697,97.717z M112.257,44.234
		c-1.644-0.308-3.168,0.934-3.398,2.598c-1.141,8.494-5.491,12.944-12.938,13.192c-12.779,0.455-18.005,11.923-19.098,18.383
		c-4.451,1.543-17.638,6.354-22.009,10.729c-2.675,2.666-4.472,5.946-5.06,9.244c-0.653,3.652,0.26,7.016,2.512,9.262
		c1.779,1.785,4.194,2.726,6.983,2.726c3.99,0,8.192-1.921,11.544-5.267c5-4.995,10.562-21.468,11.178-23.33
		c0.059-0.153-0.007-0.325,0.023-0.484c0.354-0.408,0.626-0.893,0.709-1.49c0.083-0.543,2.027-13.322,13.441-13.736
		c4.911-0.165,16.55-2.299,18.713-18.441C115.07,45.972,113.918,44.453,112.257,44.234z M66.508,100.833
		c-2.154,2.157-4.933,3.493-7.265,3.493c-0.798,0-1.912-0.165-2.704-0.952c-1.132-1.141-1.011-2.938-0.836-3.918
		c0.37-2.058,1.605-4.244,3.39-6.041c2.205-2.193,8.958-5.231,14.975-7.555C71.756,91.866,68.706,98.627,66.508,100.833z"/>
</g>
<g>
</g>
<g>
</g>
<g>
</g>
<g>
</g>
<g>
</g>
<g>
</g>
<g>
</g>
<g>
</g>
<g>
</g>
<g>
</g>
<g>
</g>
<g>
</g>
<g>
</g>
<g>
</g>
<g>
</g>
</svg>
