<?xml version="1.0" encoding="iso-8859-1"?>
<!-- Generator: Adobe Illustrator 16.0.0, SVG Export Plug-In . SVG Version: 6.00 Build 0)  -->
<!DOCTYPE svg PUBLIC "-//W3C//DTD SVG 1.1//EN" "http://www.w3.org/Graphics/SVG/1.1/DTD/svg11.dtd">
<svg version="1.1" id="Capa_1" xmlns="http://www.w3.org/2000/svg" xmlns:xlink="http://www.w3.org/1999/xlink" x="0px" y="0px"
	 width="61.167px" height="61.167px" viewBox="0 0 61.167 61.167" style="enable-background:new 0 0 61.167 61.167;"
	 xml:space="preserve">
<g>
	<g>
		<g>
			<path d="M30.583,44.942c-8.173,0-14.822-6.649-14.822-14.821c0-8.173,6.649-14.822,14.822-14.822
				c8.172,0,14.821,6.649,14.821,14.822C45.404,38.292,38.755,44.942,30.583,44.942z M30.583,17.297
				c-7.07,0-12.822,5.752-12.822,12.822c0,7.068,5.752,12.82,12.822,12.82c7.069,0,12.821-5.752,12.821-12.82
				C43.404,23.05,37.652,17.297,30.583,17.297z"/>
		</g>
		<g>
			<path d="M30.583,12.792c-0.552,0-1-0.447-1-1V1c0-0.553,0.448-1,1-1c0.552,0,1,0.447,1,1v10.791
				C31.583,12.345,31.135,12.792,30.583,12.792z"/>
		</g>
		<g>
			<path d="M30.583,61.167c-0.552,0-1-0.447-1-1V49.375c0-0.553,0.448-1,1-1c0.552,0,1,0.447,1,1v10.791
				C31.583,60.719,31.135,61.167,30.583,61.167z"/>
		</g>
		<g>
			<path d="M17.295,18.295c-0.256,0-0.512-0.098-0.707-0.293l-7.631-7.631c-0.391-0.391-0.391-1.023,0-1.414s1.023-0.391,1.414,0
				l7.631,7.631c0.391,0.391,0.391,1.023,0,1.414C17.807,18.199,17.551,18.295,17.295,18.295z"/>
		</g>
		<g>
			<path d="M51.501,52.502c-0.256,0-0.513-0.098-0.707-0.293l-7.631-7.631c-0.392-0.391-0.392-1.023,0-1.414
				c0.391-0.391,1.022-0.391,1.414,0l7.631,7.631c0.392,0.391,0.392,1.023,0,1.414C52.013,52.405,51.757,52.502,51.501,52.502z"/>
		</g>
		<g>
			<path d="M11.791,31.584H1c-0.552,0-1-0.447-1-1s0.448-1,1-1h10.792c0.552,0,1,0.447,1,1
				C12.791,31.137,12.343,31.584,11.791,31.584z"/>
		</g>
		<g>
			<path d="M60.166,31.584H49.375c-0.553,0-1-0.447-1-1s0.447-1,1-1h10.792c0.552,0,1,0.447,1,1
				C61.166,31.137,60.718,31.584,60.166,31.584z"/>
		</g>
		<g>
			<path d="M9.665,52.502c-0.256,0-0.512-0.098-0.707-0.293c-0.391-0.391-0.391-1.023,0-1.414l7.631-7.631
				c0.391-0.391,1.023-0.391,1.414,0s0.391,1.023,0,1.414l-7.631,7.631C10.177,52.405,9.921,52.502,9.665,52.502z"/>
		</g>
		<g>
			<path d="M43.871,18.295c-0.256,0-0.512-0.098-0.707-0.293c-0.391-0.391-0.391-1.023,0-1.414l7.631-7.631
				c0.391-0.391,1.023-0.391,1.414,0s0.391,1.023,0,1.414l-7.631,7.631C44.383,18.199,44.127,18.295,43.871,18.295z"/>
		</g>
	</g>
</g>
<g>
</g>
<g>
</g>
<g>
</g>
<g>
</g>
<g>
</g>
<g>
</g>
<g>
</g>
<g>
</g>
<g>
</g>
<g>
</g>
<g>
</g>
<g>
</g>
<g>
</g>
<g>
</g>
<g>
</g>
</svg>
