<?xml version="1.0" encoding="iso-8859-1"?>
<!-- Generator: Adobe Illustrator 18.0.0, SVG Export Plug-In . SVG Version: 6.00 Build 0)  -->
<!DOCTYPE svg PUBLIC "-//W3C//DTD SVG 1.1//EN" "http://www.w3.org/Graphics/SVG/1.1/DTD/svg11.dtd">
<svg version="1.1" id="Capa_1" xmlns="http://www.w3.org/2000/svg" xmlns:xlink="http://www.w3.org/1999/xlink" x="0px" y="0px"
	 viewBox="0 0 468.727 468.727" style="enable-background:new 0 0 468.727 468.727;" xml:space="preserve">
<path d="M437.14,253.358c-10.405-23.258-43.342-24.758-57.026-24.324c-5.452,0.173-9.969,4.21-10.738,9.598l-0.833,5.831l-7.14-1.26
	c-0.611-9.151-3.176-41.723-9.505-56.219c-2.085-4.773-3.532-9.808-4.301-14.963c-1.817-12.185-4.473-26.555-5.103-29.928
	c1.107-3.767,5.375-20.549,1.342-43.406c-3.853-21.833-0.768-35.08-0.184-37.278l6.347-10.155c1.762-2.819,2.739-5.919,2.995-9.042
	c0.188-2.281,0.651-4.533,1.593-6.618c1.186-2.625,2.865-5.219,4.743-5.65c0.899-0.207,1.714-0.746,2.013-1.619
	c0.927-2.699-1.308-4.743-3.516-4.191c-3.282,0.821-5.688,3.515-7.38,6.384c-1.241-2.195-2.902-4.194-4.978-5.855l-1.3-1.04
	l3.316-17.247c0.275-1.431-0.442-2.929-1.796-3.468c-1.816-0.721-3.725,0.402-4.073,2.214l-3.402,17.692l-2.16,1.08l-2.69-21.27
	c-0.209-1.645-1.724-2.814-3.353-2.6c-1.645,0.207-2.809,1.708-2.601,3.353l2.954,23.361l-1.815,0.908l-9.164-21.555
	c-0.568-1.335-1.991-2.176-3.409-1.87c-1.909,0.411-2.881,2.411-2.157,4.115l9.352,22l-3.531,1.766l-11.744-15.006
	c-1.141-1.457-3.358-1.575-4.642-0.104c-0.954,1.094-0.908,2.747-0.013,3.89l12.81,16.368l4.848,18.01
	c-0.796,7.26-7.753,71.959-4.393,86.224c-1.53,30.931-0.909,52.041,1.845,62.826c-9.105,7.546-47.366,24.779-62.371,31.218
	c-5.054,1.242-65.598,16.63-88.31,45.936c-21.093,27.217-36.741,50.974-38.917,54.304c-2.112,1.718-13.624,10.892-23.154,14.704
	c-11.655,4.662-44.791,36.108-57.264,59.114c-12.211,11.684-20.689,29.606-20.689,38.54c0,6.885,8.519,13.646,18.23,14.469
	c2.628,0.222,5.192-0.667,7.029-2.441c1.857-1.794,2.845-4.36,2.711-7.04l-0.806-16.123c-0.171-3.414,1.018-6.756,3.306-9.296
	l0.244-0.271c5.323-5.915,11.44-11.098,18.179-15.405c13.601-8.691,30.699-20.363,36.432-27.507
	c11.403-4.312,50.795-30.332,74.549-51.859c14.077-12.758,28.008-10.452,37.216-6.273c8.025,3.642,16.997,6.556,26.667,8.663
	c17.019,3.708,41.815,8.282,64.529,9.345c1.767,4.723,6.544,17.151,10.872,25.358c0.133,1.314,0.286,2.551,0.456,3.699
	c0.454,3.062,0.424,6.05-0.091,8.883c-3.02,16.632-0.632,54.697,0.535,70.291c0.434,5.821,4.735,10.706,10.457,11.881l15.37,3.153
	c3.487,0.715,7.037,1.075,10.597,1.075c1.274,0,2.551-0.046,3.825-0.139c4.675-0.338,11.452-1.086,17.197-2.728
	c0.848-0.242,1.545-0.845,1.909-1.647c0.363-0.803,0.355-1.725-0.022-2.521c-3.266-6.894-11.892-11.45-20.647-14.403
	c0.377,0.07,0.757,0.142,1.148,0.22c6.387,1.277,13.77,1.691,20.657,1.691c4.358,0,8.518-0.166,12.099-0.383
	c2.821-0.171,5.292-2.184,5.747-4.974c0.457-2.801-1.083-5.476-3.728-6.492c-18.196-6.989-31.355-14.531-37.055-21.236
	c-8.507-10.008-9.941-45.547-9.749-64.817c0.033-3.35,0.568-6.67,1.593-9.859l0,0c4.424-13.725,9.846-50.096,11.376-60.723
	c4.777,0.88,8.3,3.396,12.282,6.239c5.279,3.77,11.207,7.982,20.897,8.775c-1.637,5.051-3.117,12.015-3.117,20.715
	c0,20.559,11.527,39.874,12.019,40.686c0.549,0.909,1.528,1.449,2.566,1.449c0.16,0,0.321-0.013,0.481-0.038
	c1.209-0.197,2.177-1.108,2.446-2.302c0.265-1.175,6.47-28.92,5.657-41.588c-0.421-6.53-2.776-13.977-5.106-19.952
	c9.383-1.973,16.836-6.362,20.858-12.567C442.39,274.53,442.281,264.85,437.14,253.358z M319.625,210.784
	c0.236,2.302,0.283,4.875-0.258,6.77c-0.455,1.593,0.468,3.254,2.06,3.709c0.275,0.079,0.553,0.116,0.826,0.116
	c1.305,0,2.506-0.859,2.883-2.177c1.236-4.327,0.465-9.933-0.09-12.834c-0.184-0.96-0.971-3.833-1.223-5
	c-1.734-8.04-3.059-24.867-1.301-60.036c0.017-0.321-0.02-0.643-0.105-0.953c-2.893-10.415,2.274-64.905,4.509-85.022
	c0.042-0.372,0.013-0.749-0.085-1.111l-4.517-16.779l18.182-9.091l1.215,0.972c5.66,4.528,7.031,12.578,3.189,18.725l-6.573,10.517
	c-0.134,0.214-0.24,0.445-0.316,0.687c-0.19,0.6-4.588,14.985-0.094,40.453c4.218,23.904-1.31,41.073-1.364,41.239
	c-0.162,0.485-0.197,1.004-0.102,1.506c0.031,0.165,3.154,16.71,5.201,30.43c0.846,5.677,2.439,11.222,4.736,16.479
	c4.445,10.18,6.978,30.952,8.209,44.283c-13.149,2.613-23.446,1.299-30.634-3.917c-6.778-4.92-9.048-12.214-9.76-15.566
	C316.253,212.988,318.077,211.846,319.625,210.784z M257.64,241.299c0.163-0.039,0.323-0.092,0.478-0.159
	c4.225-1.811,32.228-13.895,50.655-23.894c1.25,4.624,4.295,11.964,11.596,17.3c5.854,4.279,13.238,6.424,22.06,6.424
	c3.945,0,8.183-0.437,12.695-1.296c0.084,1.073,0.156,2.034,0.215,2.86c-5.272-0.117-15.115,0.56-21.407,6.469
	c-4.162,3.907-6.051,9.317-5.614,16.081c1.21,18.751,2.373,30.485,8.316,35.313c1.814,1.473,3.972,2.214,6.437,2.214
	c0.62,0,1.261-0.047,1.919-0.141c5.787-0.826,11.316-4.742,15.417-8.474c-0.296,1.884-0.611,3.862-0.942,5.899
	c-9.552,1.4-26.047,8.737-31.938,11.46l-4.403-4.403c-0.843-0.843-2.105-1.107-3.214-0.672c-0.151,0.059-15.308,5.797-27.771-6.011
	c-1.204-1.142-3.104-1.088-4.241,0.115c-0.72,0.76-0.962,1.798-0.741,2.746c-17.266,1.588-31.015,6.248-40.47,9.459
	c-1.091,0.371-2.133,0.725-3.124,1.055c-2.386,0.796-4.997,0.757-7.352-0.109c-30.959-11.397-35.381-42.386-36.006-50.214
	C226.221,249.023,257.197,241.406,257.64,241.299z M73.31,406.962c-7.194,4.598-13.724,10.132-19.408,16.446l-0.244,0.271
	c-3.372,3.746-5.09,8.582-4.838,13.616l0.806,16.117c0.048,0.964-0.267,1.826-0.888,2.425c-0.6,0.579-1.438,0.856-2.354,0.778
	c-7.267-0.616-12.736-5.575-12.736-8.49c0-6.719,7.463-23.504,19.159-34.511c0.238-0.224,0.438-0.485,0.591-0.773
	c7.506-14.073,23.519-31.599,36.687-43.518c1.812,4.943,5.543,12.566,12.323,17.113C96.17,391.669,86.145,398.761,73.31,406.962z
	 M326.26,354.189c-3.001-7.195-5.347-13.634-5.386-13.739c-0.416-1.147-1.486-1.927-2.706-1.974
	c-22.81-0.86-48.201-5.53-65.486-9.296c-9.257-2.017-17.824-4.798-25.464-8.265c-8.879-4.029-26.366-8.44-43.725,7.29
	c-23.031,20.872-64.201,48.12-73.241,50.902c-0.629,0.193-1.176,0.588-1.559,1.124c-0.422,0.59-0.989,1.256-1.688,1.99
	c-7.348-4.055-10.845-13.333-12.02-17.188c5.483-4.624,10.106-7.895,12.846-8.99c11.356-4.543,24.55-15.481,25.106-15.945
	c0.232-0.193,0.434-0.421,0.598-0.675c0.162-0.25,16.401-25.278,38.88-54.284c5.413-6.985,13.316-13.183,22.155-18.562
	c1.62,11.73,8.729,41.237,39.566,52.589c1.896,0.698,3.899,1.047,5.904,1.047c1.832,0,3.665-0.292,5.418-0.876
	c1.001-0.333,2.054-0.691,3.156-1.066c10.778-3.66,25.483-8.642,44.628-9.55c11.08,7.068,22.478,5.008,26.93,3.767l11.247,11.247
	C327.974,332.156,326.505,343.638,326.26,354.189z M360.687,420c8.054,9.475,25.642,17.614,39.158,22.832
	c-8.877,0.536-21.361,0.746-31.13-1.208c-4.024-0.804-16.007-2.824-22.269,0.14c0.84-8.686,2.971-30.772,4.976-51.762
	C352.989,402.52,355.778,414.225,360.687,420z M351.393,339.599c-1.182,3.667-1.965,7.542-2.328,11.517
	c-2.148,23.5-8.892,93.197-8.96,93.898c-0.158,1.638,1.032,3.097,2.668,3.272c8.156,0.872,28.731,4.755,36.57,12.799
	c-4.185,0.834-8.544,1.281-11.821,1.518c-4.283,0.312-8.585,0.031-12.783-0.83l-15.369-3.153c-3.108-0.638-5.443-3.29-5.681-6.451
	c-1.149-15.363-3.511-52.82-0.613-68.771c0.631-3.479,0.672-7.124,0.122-10.835c-0.177-1.19-0.335-2.482-0.47-3.855
	c-0.005-0.096-0.014-0.191-0.027-0.286c-1.221-12.801-0.495-32.529,5-44.068c0.546-1.147,0.311-2.513-0.588-3.411l-5.057-5.057
	c7.232-3.253,19.005-8.142,26.366-9.717C356.259,318.932,353.657,332.575,351.393,339.599z M415.723,315.035
	c0.497,7.736-2.001,22.336-3.8,31.564c-3.237-7.168-7.382-18.603-7.382-30.155c0-9.066,1.736-16.016,3.438-20.65
	c0.856-0.042,1.703-0.099,2.538-0.176C412.831,301.351,415.32,308.783,415.723,315.035z M432.429,278.868
	c-5.26,8.115-17.646,11.006-27.482,11.006c-9.774,0-15.08-3.79-20.698-7.801c-5.01-3.578-10.19-7.278-18.187-7.659
	c-1.523-0.076-2.899,1.046-3.114,2.583c-0.015,0.107-0.367,2.622-0.959,6.616c-2.984,3.744-10.788,11.909-17.849,12.918
	c-2.095,0.298-3.13-0.307-3.725-0.79c-4.336-3.523-5.279-18.143-6.111-31.043c-0.32-4.952,0.897-8.651,3.721-11.309
	c6.439-6.062,19.114-4.784,20.092-4.674l12.435,2.194c0.803,0.141,1.624-0.048,2.282-0.525c0.658-0.477,1.094-1.2,1.209-2.005
	l1.272-8.899c0.356-2.498,2.455-4.369,4.989-4.449c12.483-0.398,42.439,0.836,51.359,20.777
	C435.92,265.324,436.178,273.082,432.429,278.868z"/>
<g>
</g>
<g>
</g>
<g>
</g>
<g>
</g>
<g>
</g>
<g>
</g>
<g>
</g>
<g>
</g>
<g>
</g>
<g>
</g>
<g>
</g>
<g>
</g>
<g>
</g>
<g>
</g>
<g>
</g>
</svg>
